<?xml version="1.0" encoding="iso-8859-1"?>
<!-- Generator: Adobe Illustrator 16.0.0, SVG Export Plug-In . SVG Version: 6.00 Build 0)  -->
<!DOCTYPE svg PUBLIC "-//W3C//DTD SVG 1.1//EN" "http://www.w3.org/Graphics/SVG/1.1/DTD/svg11.dtd">
<svg version="1.1" id="Capa_1" xmlns="http://www.w3.org/2000/svg" xmlns:xlink="http://www.w3.org/1999/xlink" x="0px" y="0px"
	 width="439.039px" height="439.039px" viewBox="0 0 439.039 439.039" style="enable-background:new 0 0 439.039 439.039;"
	 xml:space="preserve">
<g>
	<path fill='#fff' d="M369.514,49.094H69.525c-6.903,0-12.5,5.597-12.5,12.5v50.561c0,6.904,5.597,12.5,12.5,12.5h8.529l34.731,303.308
		c0.723,6.312,6.065,11.076,12.419,11.076h188.627c6.354,0,11.695-4.766,12.418-11.076l34.733-303.309h8.529
		c6.903,0,12.5-5.596,12.5-12.5v-50.56C382.014,54.691,376.417,49.094,369.514,49.094z M82.025,74.094h274.988v25.561h-7.18H89.206
		h-7.18V74.094z M302.682,414.041H136.355l-33.137-289.385H335.82L302.682,414.041z M382.014,27.625c0,6.903-5.598,12.5-12.5,12.5
		c-4.172,0-7.867-2.044-10.138-5.186h-0.819h-5.828h-54.453h-4.568H79.664c-2.271,3.142-5.966,5.186-10.138,5.186
		c-6.903,0-12.5-5.597-12.5-12.5v-5.186c0-6.903,5.597-12.5,12.5-12.5h216.512C287.22,4.264,292.251,0,298.275,0h54.453
		c6.025,0,11.056,4.264,12.237,9.939h4.548c6.903,0,12.5,5.597,12.5,12.5V27.625L382.014,27.625z"/>
</g></svg>
